<svg width="201" height="33" viewBox="0 0 201 33" fill="none" xmlns="http://www.w3.org/2000/svg">
<path d="M18.6548 6.8C18.9668 6.8 19.2188 6.896 19.4108 7.088C19.6268 7.28 19.7348 7.532 19.7348 7.844C19.7348 8.156 19.6268 8.408 19.4108 8.6C19.2188 8.768 18.9668 8.852 18.6548 8.852H11.2028V30.92C11.2028 31.232 11.0948 31.496 10.8788 31.712C10.6628 31.904 10.3988 32 10.0868 32C9.75084 32 9.47484 31.904 9.25884 31.712C9.06684 31.496 8.97084 31.232 8.97084 30.92V8.852H1.51884C1.20684 8.852 0.942844 8.756 0.726844 8.564C0.534844 8.372 0.438844 8.12 0.438844 7.808C0.438844 7.52 0.534844 7.28 0.726844 7.088C0.942844 6.896 1.20684 6.8 1.51884 6.8H18.6548ZM38.6174 29.876C38.9294 29.876 39.1814 29.984 39.3734 30.2C39.5894 30.416 39.6974 30.668 39.6974 30.956C39.6974 31.268 39.5894 31.52 39.3734 31.712C39.1814 31.904 38.9294 32 38.6174 32H25.4054C25.0934 32 24.8294 31.904 24.6134 31.712C24.4214 31.496 24.3254 31.232 24.3254 30.92V7.88C24.3254 7.568 24.4214 7.316 24.6134 7.124C24.8294 6.908 25.0934 6.8 25.4054 6.8H38.6174C38.9294 6.8 39.1814 6.908 39.3734 7.124C39.5894 7.316 39.6974 7.568 39.6974 7.88C39.6974 8.192 39.5894 8.444 39.3734 8.636C39.1814 8.828 38.9294 8.924 38.6174 8.924H26.5934V17.96H36.9974C37.3094 17.96 37.5614 18.068 37.7534 18.284C37.9694 18.476 38.0774 18.728 38.0774 19.04C38.0774 19.352 37.9694 19.604 37.7534 19.796C37.5614 19.988 37.3094 20.084 36.9974 20.084H26.5934V29.876H38.6174ZM51.5903 32.36C49.8623 32.36 48.3263 32.072 46.9823 31.496C45.6623 30.92 44.3783 30.02 43.1303 28.796C42.8423 28.556 42.6983 28.268 42.6983 27.932C42.6983 27.644 42.8063 27.38 43.0223 27.14C43.2623 26.9 43.5263 26.78 43.8143 26.78C44.1023 26.78 44.3663 26.9 44.6063 27.14C46.4783 29.204 48.8183 30.236 51.6263 30.236C53.3543 30.236 54.7823 29.828 55.9103 29.012C57.0623 28.196 57.6383 27.128 57.6383 25.808C57.6383 24.776 57.3503 23.924 56.7743 23.252C56.2223 22.556 55.4903 21.992 54.5783 21.56C53.6663 21.128 52.5023 20.684 51.0863 20.228C49.5503 19.772 48.2543 19.268 47.1983 18.716C46.1663 18.164 45.3263 17.432 44.6783 16.52C44.0303 15.584 43.7063 14.408 43.7063 12.992C43.7063 11.72 44.0423 10.592 44.7143 9.608C45.4103 8.624 46.3703 7.856 47.5943 7.304C48.8423 6.728 50.2703 6.44 51.8783 6.44C53.3423 6.44 54.7103 6.692 55.9823 7.196C57.2783 7.676 58.3103 8.372 59.0783 9.284C59.4383 9.692 59.6183 10.04 59.6183 10.328C59.6183 10.592 59.4983 10.844 59.2583 11.084C59.0183 11.3 58.7543 11.408 58.4663 11.408C58.2263 11.408 58.0223 11.324 57.8543 11.156C57.2063 10.388 56.3423 9.764 55.2623 9.284C54.1823 8.804 53.0543 8.564 51.8783 8.564C50.1263 8.564 48.6983 8.96 47.5943 9.752C46.4903 10.52 45.9383 11.576 45.9383 12.92C45.9383 14.312 46.4663 15.38 47.5223 16.124C48.5783 16.868 50.0903 17.552 52.0583 18.176C53.7623 18.68 55.1543 19.196 56.2343 19.724C57.3143 20.252 58.1903 21.008 58.8623 21.992C59.5583 22.952 59.9063 24.224 59.9063 25.808C59.9063 27.032 59.5463 28.148 58.8263 29.156C58.1303 30.14 57.1463 30.92 55.8743 31.496C54.6263 32.072 53.1983 32.36 51.5903 32.36ZM81.9212 29.948C82.2332 29.948 82.4852 30.056 82.6772 30.272C82.8932 30.464 83.0012 30.692 83.0012 30.956C83.0012 31.268 82.8932 31.52 82.6772 31.712C82.4852 31.904 82.2332 32 81.9212 32H64.6772C64.3412 32 64.0652 31.892 63.8492 31.676C63.6572 31.436 63.5612 31.172 63.5612 30.884C63.5612 30.668 63.6332 30.452 63.7772 30.236L79.9772 8.852H65.5772C65.2652 8.852 65.0012 8.756 64.7852 8.564C64.5932 8.372 64.4972 8.12 64.4972 7.808C64.4972 7.52 64.5932 7.28 64.7852 7.088C65.0012 6.896 65.2652 6.8 65.5772 6.8H81.9572C82.3172 6.8 82.6052 6.908 82.8212 7.124C83.0372 7.34 83.1452 7.592 83.1452 7.88C83.1452 8.096 83.0732 8.312 82.9292 8.528L66.7652 29.948H81.9212ZM104.225 6.8C104.537 6.8 104.789 6.896 104.981 7.088C105.197 7.28 105.305 7.532 105.305 7.844C105.305 8.156 105.197 8.408 104.981 8.6C104.789 8.768 104.537 8.852 104.225 8.852H96.7732V30.92C96.7732 31.232 96.6652 31.496 96.4492 31.712C96.2332 31.904 95.9692 32 95.6572 32C95.3212 32 95.0452 31.904 94.8292 31.712C94.6372 31.496 94.5412 31.232 94.5412 30.92V8.852H87.0892C86.7772 8.852 86.5132 8.756 86.2972 8.564C86.1052 8.372 86.0092 8.12 86.0092 7.808C86.0092 7.52 86.1052 7.28 86.2972 7.088C86.5132 6.896 86.7772 6.8 87.0892 6.8H104.225Z" fill="#F67DA1"/>
<path d="M125.952 6.8C126.264 6.8 126.516 6.896 126.708 7.088C126.924 7.28 127.032 7.532 127.032 7.844C127.032 8.156 126.924 8.408 126.708 8.6C126.516 8.768 126.264 8.852 125.952 8.852H118.5V30.92C118.5 31.232 118.392 31.496 118.176 31.712C117.96 31.904 117.696 32 117.384 32C117.048 32 116.772 31.904 116.556 31.712C116.364 31.496 116.268 31.232 116.268 30.92V8.852H108.816C108.504 8.852 108.24 8.756 108.024 8.564C107.832 8.372 107.736 8.12 107.736 7.808C107.736 7.52 107.832 7.28 108.024 7.088C108.24 6.896 108.504 6.8 108.816 6.8H125.952ZM145.914 29.876C146.226 29.876 146.478 29.984 146.67 30.2C146.886 30.416 146.994 30.668 146.994 30.956C146.994 31.268 146.886 31.52 146.67 31.712C146.478 31.904 146.226 32 145.914 32H132.702C132.39 32 132.126 31.904 131.91 31.712C131.718 31.496 131.622 31.232 131.622 30.92V7.88C131.622 7.568 131.718 7.316 131.91 7.124C132.126 6.908 132.39 6.8 132.702 6.8H145.914C146.226 6.8 146.478 6.908 146.67 7.124C146.886 7.316 146.994 7.568 146.994 7.88C146.994 8.192 146.886 8.444 146.67 8.636C146.478 8.828 146.226 8.924 145.914 8.924H133.89V17.96H144.294C144.606 17.96 144.858 18.068 145.05 18.284C145.266 18.476 145.374 18.728 145.374 19.04C145.374 19.352 145.266 19.604 145.05 19.796C144.858 19.988 144.606 20.084 144.294 20.084H133.89V29.876H145.914ZM139.794 5.144C139.578 5.144 139.41 5.084 139.29 4.964C139.17 4.844 139.11 4.688 139.11 4.496C139.11 4.304 139.23 4.088 139.47 3.848L142.674 1.364C142.986 1.1 143.334 0.967998 143.718 0.967998C144.03 0.967998 144.282 1.076 144.474 1.292C144.69 1.484 144.798 1.736 144.798 2.048C144.798 2.528 144.57 2.9 144.114 3.164L140.586 4.928C140.25 5.072 139.986 5.144 139.794 5.144ZM174.043 6.8C174.331 6.8 174.571 6.908 174.763 7.124C174.979 7.316 175.087 7.568 175.087 7.88V30.92C175.087 31.232 174.979 31.496 174.763 31.712C174.547 31.904 174.283 32 173.971 32C173.635 32 173.359 31.904 173.143 31.712C172.927 31.496 172.819 31.232 172.819 30.92V11.12L164.359 23.936C164.119 24.248 163.843 24.392 163.531 24.368H163.459C163.171 24.368 162.907 24.224 162.667 23.936L154.207 11.048V30.92C154.207 31.232 154.099 31.496 153.883 31.712C153.691 31.904 153.439 32 153.127 32C152.815 32 152.563 31.904 152.371 31.712C152.179 31.496 152.083 31.232 152.083 30.92V7.88C152.083 7.592 152.179 7.34 152.371 7.124C152.587 6.908 152.851 6.8 153.163 6.8C153.331 6.8 153.511 6.848 153.703 6.944C153.895 7.016 154.039 7.124 154.135 7.268L163.567 21.416L173.071 7.268C173.335 6.908 173.659 6.752 174.043 6.8ZM200.653 30.56C200.701 30.752 200.725 30.896 200.725 30.992C200.725 31.304 200.617 31.556 200.401 31.748C200.185 31.94 199.933 32.036 199.645 32.036C199.405 32.036 199.189 31.976 198.997 31.856C198.829 31.712 198.697 31.532 198.601 31.316L195.901 24.728H184.201L181.537 31.316C181.345 31.796 181.021 32.036 180.565 32.036C180.229 32.036 179.977 31.952 179.809 31.784C179.641 31.616 179.545 31.388 179.521 31.1V30.992C179.521 30.848 179.533 30.74 179.557 30.668L189.061 7.412C189.253 6.932 189.613 6.692 190.141 6.692C190.381 6.692 190.585 6.764 190.753 6.908C190.945 7.028 191.089 7.196 191.185 7.412L200.653 30.56ZM195.037 22.604L189.997 10.292L185.029 22.604H195.037Z" fill="white"/>
</svg>
